<svg xmlns="http://www.w3.org/2000/svg" width="980" height="1897" viewBox="0 0 980 1897" role="img" aria-label="全局喝水信号分发">
<defs><marker id="arrow" markerWidth="10" markerHeight="10" refX="8" refY="3" orient="auto" markerUnits="strokeWidth"><path d="M0,0 L0,6 L9,3 z" fill="#6C7C82"/></marker><filter id="shadow" x="-15%" y="-15%" width="130%" height="140%"><feDropShadow dx="0" dy="5" stdDeviation="7" flood-color="#173F3B" flood-opacity="0.08"/></filter></defs>
<rect width="100%" height="100%" fill="#F8FAF7"/>
<text x="490.0" y="54" text-anchor="middle" font-family="Microsoft YaHei, Segoe UI, sans-serif" font-size="28" font-weight="700" fill="#1B2A30">全局喝水信号分发</text>
<text x="490.0" y="88" text-anchor="middle" font-family="Microsoft YaHei, Segoe UI, sans-serif" font-size="14" fill="#68767C">已确认；一次“我喝了”跨有效关系分发，回应保留成员与关系来源</text>
<path d="M 490.0 214.0 L 490.0 266.5 L 490.0 266.5 L 490.0 319.0" fill="none" stroke="#6C7C82" stroke-width="2" stroke-linejoin="round" marker-end="url(#arrow)"/>
<path d="M 490.0 383.0 L 490.0 435.5 L 490.0 435.5 L 490.0 488.0" fill="none" stroke="#6C7C82" stroke-width="2" stroke-linejoin="round" marker-end="url(#arrow)"/>
<path d="M 490.0 572.0 L 490.0 624.5 L 490.0 624.5 L 490.0 677.0" fill="none" stroke="#6C7C82" stroke-width="2" stroke-linejoin="round" marker-end="url(#arrow)"/>
<path d="M 490.0 761.0 L 490.0 813.5 L 490.0 813.5 L 490.0 866.0" fill="none" stroke="#6C7C82" stroke-width="2" stroke-linejoin="round" marker-end="url(#arrow)"/>
<path d="M 490.0 930.0 L 490.0 982.5 L 490.0 982.5 L 490.0 1035.0" fill="none" stroke="#6C7C82" stroke-width="2" stroke-linejoin="round" marker-end="url(#arrow)"/>
<path d="M 490.0 1099.0 L 490.0 1151.5 L 490.0 1151.5 L 490.0 1204.0" fill="none" stroke="#6C7C82" stroke-width="2" stroke-linejoin="round" marker-end="url(#arrow)"/>
<path d="M 490.0 1320.0 L 490.0 1372.5 L 348.0 1372.5 L 348.0 1425.0" fill="none" stroke="#6C7C82" stroke-width="2" stroke-linejoin="round" marker-end="url(#arrow)"/>
<rect x="393.0" y="1357.5" width="52" height="30" rx="10" fill="#F8FAF7" stroke="#D4DFDC"/>
<text x="419.0" y="1378.5" text-anchor="middle" font-family="Microsoft YaHei, Segoe UI, sans-serif" font-size="15" fill="#4F6066">不跟</text>
<path d="M 490.0 1320.0 L 490.0 1372.5 L 598.5 1372.5 L 598.5 1425.0" fill="none" stroke="#6C7C82" stroke-width="2" stroke-linejoin="round" marker-end="url(#arrow)"/>
<rect x="509.8" y="1357.5" width="69" height="30" rx="10" fill="#F8FAF7" stroke="#D4DFDC"/>
<text x="544.2" y="1378.5" text-anchor="middle" font-family="Microsoft YaHei, Segoe UI, sans-serif" font-size="15" fill="#4F6066">跟一口</text>
<path d="M 598.5 1489.0 L 598.5 1541.5 L 359.0 1541.5 L 359.0 1594.0" fill="none" stroke="#6C7C82" stroke-width="2" stroke-linejoin="round" marker-end="url(#arrow)"/>
<path d="M 598.5 1489.0 L 598.5 1541.5 L 603.0 1541.5 L 603.0 1594.0" fill="none" stroke="#6C7C82" stroke-width="2" stroke-linejoin="round" marker-end="url(#arrow)"/>
<path d="M 359.0 1658.0 L 359.0 1710.5 L 490.0 1710.5 L 490.0 1763.0" fill="none" stroke="#6C7C82" stroke-width="2" stroke-linejoin="round" marker-end="url(#arrow)"/>
<path d="M 603.0 1658.0 L 603.0 1710.5 L 490.0 1710.5 L 490.0 1763.0" fill="none" stroke="#6C7C82" stroke-width="2" stroke-linejoin="round" marker-end="url(#arrow)"/>
<rect x="385.0" y="150.0" width="210.0" height="64.0" rx="18" fill="#FFFFFF" stroke="#BFD1CD" stroke-width="2" filter="url(#shadow)"/>
<text x="490.0" y="188.0" text-anchor="middle" font-family="Microsoft YaHei, Segoe UI, sans-serif" font-size="18" fill="#1B2A30">用户点击「我喝了」</text>
<rect x="376.0" y="319.0" width="228.0" height="64.0" rx="18" fill="#FFFFFF" stroke="#BFD1CD" stroke-width="2" filter="url(#shadow)"/>
<text x="490.0" y="357.0" text-anchor="middle" font-family="Microsoft YaHei, Segoe UI, sans-serif" font-size="18" fill="#1B2A30">创建一条全局喝水信号</text>
<rect x="358.0" y="488.0" width="264.0" height="84.0" rx="18" fill="#FFFFFF" stroke="#BFD1CD" stroke-width="2" filter="url(#shadow)"/>
<text x="490.0" y="522.5" text-anchor="middle" font-family="Microsoft YaHei, Segoe UI, sans-serif" font-size="18" fill="#1B2A30">读取用户加入的全部关系空</text>
<text x="490.0" y="549.5" text-anchor="middle" font-family="Microsoft YaHei, Segoe UI, sans-serif" font-size="18" fill="#1B2A30">间</text>
<rect x="358.0" y="677.0" width="264.0" height="84.0" rx="18" fill="#FFFFFF" stroke="#BFD1CD" stroke-width="2" filter="url(#shadow)"/>
<text x="490.0" y="711.5" text-anchor="middle" font-family="Microsoft YaHei, Segoe UI, sans-serif" font-size="18" fill="#1B2A30">应用不发送的关系 / 成员设</text>
<text x="490.0" y="738.5" text-anchor="middle" font-family="Microsoft YaHei, Segoe UI, sans-serif" font-size="18" fill="#1B2A30">置</text>
<rect x="376.0" y="866.0" width="228.0" height="64.0" rx="18" fill="#FFFFFF" stroke="#BFD1CD" stroke-width="2" filter="url(#shadow)"/>
<text x="490.0" y="904.0" text-anchor="middle" font-family="Microsoft YaHei, Segoe UI, sans-serif" font-size="18" fill="#1B2A30">生成实际接收成员集合</text>
<rect x="358.0" y="1035.0" width="264.0" height="64.0" rx="18" fill="#FFFFFF" stroke="#BFD1CD" stroke-width="2" filter="url(#shadow)"/>
<text x="490.0" y="1073.0" text-anchor="middle" font-family="Microsoft YaHei, Segoe UI, sans-serif" font-size="18" fill="#1B2A30">向这些成员传递一次轻提示</text>
<polygon points="490.0,1204.0 612.0,1262.0 490.0,1320.0 368.0,1262.0" fill="#EAF4F2" stroke="#5F9E98" stroke-width="2" filter="url(#shadow)"/>
<text x="490.0" y="1268.0" text-anchor="middle" font-family="Microsoft YaHei, Segoe UI, sans-serif" font-size="18" fill="#1B2A30">成员是否跟一口？</text>
<rect x="265.5" y="1425.0" width="165.0" height="64.0" rx="18" fill="#FFFFFF" stroke="#BFD1CD" stroke-width="2" filter="url(#shadow)"/>
<text x="348.0" y="1463.0" text-anchor="middle" font-family="Microsoft YaHei, Segoe UI, sans-serif" font-size="18" fill="#1B2A30">安静结束</text>
<rect x="482.5" y="1425.0" width="232.0" height="64.0" rx="18" fill="#FFFFFF" stroke="#BFD1CD" stroke-width="2" filter="url(#shadow)"/>
<text x="598.5" y="1463.0" text-anchor="middle" font-family="Microsoft YaHei, Segoe UI, sans-serif" font-size="18" fill="#1B2A30">创建 Follow Response</text>
<rect x="272.0" y="1594.0" width="174.0" height="64.0" rx="18" fill="#FFFFFF" stroke="#BFD1CD" stroke-width="2" filter="url(#shadow)"/>
<text x="359.0" y="1632.0" text-anchor="middle" font-family="Microsoft YaHei, Segoe UI, sans-serif" font-size="18" fill="#1B2A30">记录跟随者身份</text>
<rect x="498.0" y="1594.0" width="210.0" height="64.0" rx="18" fill="#FFFFFF" stroke="#BFD1CD" stroke-width="2" filter="url(#shadow)"/>
<text x="603.0" y="1632.0" text-anchor="middle" font-family="Microsoft YaHei, Segoe UI, sans-serif" font-size="18" fill="#1B2A30">记录跟随者所属关系</text>
<rect x="394.0" y="1763.0" width="192.0" height="64.0" rx="18" fill="#FFFFFF" stroke="#BFD1CD" stroke-width="2" filter="url(#shadow)"/>
<text x="490.0" y="1801.0" text-anchor="middle" font-family="Microsoft YaHei, Segoe UI, sans-serif" font-size="18" fill="#1B2A30">发起者获得轻反馈</text>
</svg>